# xmcd
#
# Track frame offsets:
#	150
#	23275
#	40677
#	55557
#	79752
#	99105
#	124775
#	140502
#	163227
#	184827
#	205672
#
# Disc length: 3093 seconds
#
# Revision: 1
# Processed by: cddbd v1.4PL0 Copyright (c) Steve Scherf et al.
# Submitted via: audiograbber 1.81.03
#
DISCID=7f0c130b
DTITLE=Jude Bowerman - Life Goes On
DYEAR=2002
DGENRE=Blues
TTITLE0=Can't Turn It Off
TTITLE1=Lovebug
TTITLE2=Can You Feel It
TTITLE3=Life Goes On
TTITLE4=Soulfire
TTITLE5=Passerby
TTITLE6=Let Love Breathe
TTITLE7=Forgotten People
TTITLE8=Hit and Run
TTITLE9=What's In Store
TTITLE10=Down Under
EXTD=
EXTT0=
EXTT1=
EXTT2=
EXTT3=
EXTT4=
EXTT5=
EXTT6=
EXTT7=
EXTT8=
EXTT9=
EXTT10=
PLAYORDER=
